<svg width="100" height="100" viewBox="0 0 100 100" fill="none" xmlns="http://www.w3.org/2000/svg">
<path d="M48.06 7.87C49.01 7.87 51.69 7.77 53.42 8.17C55.16 8.57 56.85 9.16 58.49 10.25C60.12 11.34 62.11 13.48 63.25 14.72C64.39 15.96 64.19 15.46 65.33 17.7C66.47 19.93 68.96 25.34 70.1 28.12C71.24 30.9 70.84 29.7 72.18 34.37C73.52 39.03 76.45 50.5 78.14 56.1C79.82 61.71 80.72 64.29 82.3 68.01C83.89 71.73 85.53 75.21 87.66 78.43C89.8 81.66 93.72 85.48 95.11 87.37C96.5 89.25 95.9 89.15 96 89.75C96.1 90.34 96.05 90.54 95.7 90.94C95.35 91.34 94.76 91.93 93.92 92.13C93.07 92.33 91.73 92.38 90.64 92.13C89.55 91.88 88.51 91.34 87.37 90.64C86.22 89.95 85.08 89.05 83.79 87.96C82.5 86.87 80.96 85.53 79.62 84.09C78.28 82.65 77.09 81.16 75.75 79.33C74.41 77.49 73.02 75.46 71.59 73.07C70.15 70.69 68.71 67.52 67.12 65.04C65.53 62.55 63.45 59.78 62.06 58.19C60.67 56.6 59.73 56.15 58.78 55.51C57.84 54.86 57.74 54.71 56.4 54.32C55.06 53.92 52.38 53.28 50.74 53.13C49.11 52.98 47.77 53.23 46.58 53.42C45.39 53.62 44.49 53.97 43.6 54.32C42.71 54.66 42.16 54.86 41.22 55.51C40.27 56.15 39.33 56.6 37.94 58.19C36.55 59.78 34.47 62.55 32.88 65.04C31.29 67.52 29.85 70.69 28.41 73.07C26.98 75.46 25.59 77.49 24.25 79.33C22.91 81.16 21.72 82.65 20.38 84.09C19.04 85.53 17.5 86.87 16.21 87.96C14.92 89.05 13.78 89.95 12.63 90.64C11.49 91.34 10.45 91.88 9.36 92.13C8.27 92.38 6.93 92.33 6.08 92.13C5.24 91.93 4.65 91.34 4.3 90.94C3.95 90.54 3.9 90.34 4 89.75C4.1 89.15 3.5 89.25 4.89 87.37C6.28 85.48 10.2 81.66 12.34 78.43C14.47 75.21 16.11 71.73 17.7 68.01C19.28 64.29 20.18 61.71 21.86 56.1C23.55 50.5 26.33 39.43 27.82 34.37C29.31 29.31 29.9 28.07 30.8 25.73C31.69 23.4 32.19 22.21 33.18 20.38C34.17 18.54 35.56 16.26 36.75 14.72C37.94 13.18 39.03 12.14 40.32 11.15C41.61 10.15 43.25 9.26 44.49 8.76C45.73 8.27 47.17 8.32 47.77 8.17C48.36 8.02 47.12 7.87 48.06 7.87Z" fill="white"/>
</svg>
